<svg width="10" height="10" viewBox="0 0 10 10" fill="none" xmlns="http://www.w3.org/2000/svg">
<path d="M0.277778 0C0.124365 0 0 0.12438 0 0.27781V6.11182C0 6.72555 0.497461 7.22306 1.11111 7.22306H8.15L6.23333 9.1344C6.18075 9.18656 6.15117 9.25757 6.15117 9.33164C6.15117 9.40572 6.18075 9.47673 6.23333 9.52889L6.62778 9.91782C6.67994 9.97042 6.75093 10 6.825 10C6.89907 10 6.97007 9.97042 7.02222 9.91782L9.87778 7.06749C9.95594 6.98942 9.9999 6.88349 10 6.77301V6.56188C9.99872 6.45163 9.95494 6.34614 9.87778 6.2674L7.02222 3.41707C6.97007 3.36447 6.89907 3.33489 6.825 3.33489C6.75093 3.33489 6.67994 3.36447 6.62778 3.41707L6.23333 3.81156C6.18108 3.86276 6.15163 3.93285 6.15163 4.00602C6.15163 4.07919 6.18108 4.14928 6.23333 4.20049L8.15 6.11182H1.11111V0.27781C1.11111 0.12438 0.986746 0 0.833333 0H0.277778Z" fill="#4295E4"/>
</svg>
