<svg width="18.750000" height="18.750000" viewBox="0 0 18.75 18.75" fill="none" xmlns="http://www.w3.org/2000/svg" xmlns:xlink="http://www.w3.org/1999/xlink">
	<desc>
			Created with Pixso.
	</desc>
	<defs/>
	<path id="Vector" d="M18.14 13.5C18.09 13.45 14.37 10.77 13.35 10.97C12.86 11.05 12.58 11.38 12.02 12.05C11.93 12.16 11.72 12.41 11.55 12.6C11.2 12.48 10.85 12.34 10.52 12.18C8.8 11.34 7.4 9.95 6.57 8.23C6.4 7.89 6.26 7.55 6.15 7.2C6.33 7.03 6.59 6.81 6.7 6.72C7.36 6.16 7.69 5.88 7.78 5.39C7.96 4.38 5.28 0.64 5.25 0.6C5.13 0.43 4.97 0.28 4.78 0.18C4.6 0.07 4.39 0.01 4.18 0C3.1 0 0 4.02 0 4.7C0 4.73 0.05 8.74 4.99 13.76C10 18.69 14 18.75 14.04 18.75C14.72 18.75 18.75 15.64 18.75 14.56C18.73 14.35 18.67 14.14 18.56 13.96C18.46 13.77 18.31 13.62 18.14 13.5Z" fill="#4295E4" fill-opacity="1.000000" fill-rule="nonzero"/>
</svg>
