<svg width="20" height="20" viewBox="0 0 20 20" fill="none" xmlns="http://www.w3.org/2000/svg">
<path d="M14.358 4H4.88999C3.84782 4 3 4.84785 3 5.88999V12.2801C3 13.3223 3.84782 14.1701 4.88999 14.1701H5.63165L5.64616 15.8386C5.64746 15.9924 5.73577 16.1322 5.8741 16.1994C5.93032 16.2267 5.99085 16.2401 6.05108 16.2401C6.13903 16.2401 6.22634 16.2115 6.29858 16.1557L8.87121 14.1701H14.358C15.4002 14.1701 16.248 13.3223 16.248 12.2801V5.88999C16.248 4.84785 15.4002 4 14.358 4ZM15.438 12.2802C15.438 12.8757 14.9536 13.3602 14.358 13.3602H8.73311C8.64358 13.3602 8.55657 13.3898 8.48567 13.4445L6.44902 15.0164L6.4381 13.7616C6.43618 13.5393 6.25542 13.3602 6.03313 13.3602H4.88999C4.29448 13.3602 3.80999 12.8757 3.80999 12.2802V5.88999C3.80999 5.29448 4.29448 4.80999 4.88999 4.80999H14.3581C14.9536 4.80999 15.4381 5.29448 15.4381 5.88999V12.2802H15.438Z" fill="#C4CDD5"/>
</svg>
