<svg width="16" height="12" viewBox="0 0 16 12" fill="none" xmlns="http://www.w3.org/2000/svg">
<path d="M14.5419 2.04172L5.70854 10.8751C5.6303 10.9539 5.5238 10.9983 5.4127 10.9983C5.3016 10.9983 5.19511 10.9539 5.11687 10.8751L0.625202 6.38339C0.546322 6.30515 0.501953 6.19866 0.501953 6.08756C0.501953 5.97646 0.546322 5.86996 0.625202 5.79172L1.20854 5.20839C1.28677 5.12951 1.39327 5.08514 1.50437 5.08514C1.61547 5.08514 1.72197 5.12951 1.8002 5.20839L5.40854 8.81672L13.3669 0.85839C13.5317 0.698571 13.7937 0.698571 13.9585 0.85839L14.5419 1.45006C14.6207 1.52829 14.6651 1.63479 14.6651 1.74589C14.6651 1.85699 14.6207 1.96349 14.5419 2.04172Z" fill="#596469" stroke="#596469"/>
</svg>
