<svg width="21" height="20" viewBox="0 0 21 20" fill="none" xmlns="http://www.w3.org/2000/svg">
<path d="M16.945 13.3834C16.24 14.8088 15.0965 15.9707 13.6825 16.6984C12.2786 17.4192 10.678 17.6626 9.12334 17.3917C7.56383 17.1175 6.13505 16.3457 5.05084 15.1917C3.95656 14.0268 3.25984 12.545 3.06084 10.9592C2.85871 9.36982 3.16316 7.75718 3.93084 6.35087C4.69146 4.95535 5.88007 3.84092 7.32167 3.17171C8.75359 2.50851 10.3628 2.33062 11.905 2.66504C13.4467 2.99921 14.71 3.75921 15.755 4.96087C15.8808 5.09421 16.3675 5.63254 16.7717 6.44504" stroke="#4295E4" stroke-linecap="round" stroke-linejoin="round"/>
<path d="M13.0566 6.51087L17.2566 7.2667L17.9991 2.9917" stroke="#4295E4" stroke-linecap="round" stroke-linejoin="round"/>
</svg>
