<svg width="14" height="15" viewBox="0 0 14 15" fill="none" xmlns="http://www.w3.org/2000/svg">
<path d="M6.38272 1.25534C6.59605 0.692677 7.40338 0.692677 7.61738 1.25534L8.99738 5.07801C9.09405 5.33134 9.34005 5.50001 9.61472 5.50001H13.0061C13.6327 5.50001 13.9061 6.28001 13.4134 6.66201L11.0001 8.83334C10.8919 8.91645 10.8129 9.03166 10.7744 9.16245C10.7358 9.29324 10.7397 9.43288 10.7854 9.56134L11.6667 13.2967C11.8814 13.8967 11.1867 14.412 10.6614 14.0427L7.38338 11.9627C7.27113 11.8838 7.13726 11.8414 7.00005 11.8414C6.86284 11.8414 6.72897 11.8838 6.61672 11.9627L3.33872 14.0427C2.81405 14.412 2.11872 13.896 2.33338 13.2967L3.21472 9.56134C3.26044 9.43288 3.26429 9.29324 3.22572 9.16245C3.18716 9.03166 3.10816 8.91645 3.00005 8.83334L0.586718 6.66201C0.0933844 6.28001 0.368051 5.50001 0.993384 5.50001H4.38472C4.51825 5.50045 4.64876 5.46035 4.759 5.38499C4.86923 5.30964 4.95399 5.20259 5.00205 5.07801L6.38205 1.25534H6.38272Z" fill="#F7AB3A"/>
</svg>
