<svg width="16" height="17" viewBox="0 0 16 17" fill="none" xmlns="http://www.w3.org/2000/svg">
<path d="M7.38272 2.25534C7.59605 1.69268 8.40338 1.69268 8.61738 2.25534L9.99738 6.07801C10.0941 6.33134 10.3401 6.50001 10.6147 6.50001H14.0061C14.6327 6.50001 14.9061 7.28001 14.4134 7.66201L12.0001 9.83334C11.8919 9.91645 11.8129 10.0317 11.7744 10.1624C11.7358 10.2932 11.7397 10.4329 11.7854 10.5613L12.6667 14.2967C12.8814 14.8967 12.1867 15.412 11.6614 15.0427L8.38338 12.9627C8.27113 12.8838 8.13726 12.8414 8.00005 12.8414C7.86284 12.8414 7.72898 12.8838 7.61672 12.9627L4.33872 15.0427C3.81405 15.412 3.11872 14.896 3.33338 14.2967L4.21472 10.5613C4.26044 10.4329 4.26429 10.2932 4.22572 10.1624C4.18716 10.0317 4.10816 9.91645 4.00005 9.83334L1.58672 7.66201C1.09338 7.28001 1.36805 6.50001 1.99338 6.50001H5.38472C5.51825 6.50045 5.64876 6.46035 5.759 6.38499C5.86923 6.30964 5.95399 6.20259 6.00205 6.07801L7.38205 2.25534H7.38272Z" stroke="#C4CDD5" stroke-width="0.5" stroke-linecap="round" stroke-linejoin="round"/>
</svg>
