<svg width="24.598145" height="19.996826" viewBox="0 0 24.5981 19.9968" fill="none" xmlns="http://www.w3.org/2000/svg" xmlns:xlink="http://www.w3.org/1999/xlink">
	<desc>
			Created with Pixso.
	</desc>
	<defs/>
	<path id="Vector" d="M24.59 2.37C23.69 2.77 22.72 3.04 21.7 3.16C22.75 2.53 23.54 1.54 23.91 0.37C22.92 0.96 21.84 1.37 20.71 1.59C19.95 0.78 18.94 0.24 17.85 0.06C16.75 -0.12 15.62 0.07 14.64 0.59C13.66 1.12 12.88 1.95 12.42 2.96C11.97 3.98 11.86 5.11 12.11 6.2C10.1 6.1 8.14 5.57 6.35 4.67C4.56 3.76 2.97 2.48 1.71 0.92C1.27 1.67 1.03 2.54 1.03 3.46C1.02 4.29 1.23 5.11 1.62 5.84C2.01 6.57 2.58 7.2 3.27 7.66C2.47 7.64 1.68 7.42 0.98 7.03L0.98 7.09C0.98 8.26 1.39 9.39 2.12 10.29C2.86 11.19 3.89 11.81 5.03 12.04C4.29 12.24 3.51 12.27 2.75 12.13C3.08 13.13 3.7 14.01 4.55 14.64C5.39 15.27 6.41 15.61 7.47 15.63C5.68 17.04 3.47 17.8 1.2 17.79C0.8 17.79 0.39 17.77 0 17.72C2.3 19.21 4.99 19.99 7.73 19.99C17.01 19.99 22.09 12.3 22.09 5.63C22.09 5.42 22.08 5.2 22.07 4.98C23.06 4.27 23.91 3.38 24.59 2.37L24.59 2.37Z" fill="#FFFFFF" fill-opacity="1.000000" fill-rule="nonzero"/>
</svg>
