<svg width="26.000000" height="26.000000" viewBox="0 0 26 26" fill="none" xmlns="http://www.w3.org/2000/svg" xmlns:xlink="http://www.w3.org/1999/xlink">
	<desc>
			Created with Pixso.
	</desc>
	<defs>
		<clipPath id="clip31_4568">
			<rect id="Frame" rx="0.000000" width="25.000000" height="25.000000" transform="translate(0.500000 0.500000)" fill="white" fill-opacity="0"/>
		</clipPath>
	</defs>
	<rect id="Frame" rx="0.000000" width="25.000000" height="25.000000" transform="translate(0.500000 0.500000)" fill="#FFFFFF" fill-opacity="0"/>
	<g clip-path="url(#clip31_4568)">
		<path id="Vector" d="M25.4 6.44C25.58 5.85 25.4 5.41 24.54 5.41L21.69 5.41C20.97 5.41 20.64 5.79 20.46 6.2C20.46 6.2 19.01 9.66 16.96 11.91C16.3 12.57 16 12.77 15.64 12.77C15.45 12.77 15.18 12.57 15.18 11.97L15.18 6.44C15.18 5.73 14.98 5.41 14.38 5.41L9.91 5.41C9.46 5.41 9.18 5.74 9.18 6.05C9.18 6.73 10.21 6.88 10.31 8.78L10.31 12.89C10.31 13.79 10.15 13.96 9.79 13.96C8.82 13.96 6.48 10.48 5.09 6.5C4.82 5.72 4.54 5.41 3.82 5.41L0.97 5.41C0.16 5.41 0 5.79 0 6.2C0 6.94 0.96 10.61 4.49 15.47C6.84 18.78 10.15 20.58 13.16 20.58C14.97 20.58 15.19 20.18 15.19 19.49L15.19 16.99C15.19 16.19 15.36 16.03 15.94 16.03C16.36 16.03 17.08 16.24 18.77 17.83C20.7 19.73 21.02 20.58 22.1 20.58L24.94 20.58C25.76 20.58 26.16 20.18 25.93 19.39C25.67 18.61 24.75 17.47 23.53 16.12C22.87 15.35 21.87 14.52 21.57 14.1C21.15 13.57 21.27 13.34 21.57 12.86C21.57 12.86 25.04 8.07 25.4 6.44L25.4 6.44Z" fill="#FFFFFF" fill-opacity="1.000000" fill-rule="evenodd"/>
	</g>
</svg>
