<!-- icon666.com - MILLIONS OF FREE VECTOR ICONS --><svg version="1.1" id="Capa_1" xmlns="http://www.w3.org/2000/svg" xmlns:xlink="http://www.w3.org/1999/xlink" x="0px" y="0px" viewBox="0 0 512 512" style="enable-background:new 0 0 512 512;" xml:space="preserve"><path style="" d="M460.411,247.984H332.154c-8.854,0-16.032-7.178-16.032-16.032V23.532 c0-8.854,7.178-16.032,16.032-16.032h128.258c8.854,0,16.032,7.178,16.032,16.032v208.419 C476.444,240.806,469.266,247.984,460.411,247.984z" fill="#FFE17D"></path><path style="" d="M332.154,247.984h72.145v-104.21c0-22.136-17.945-40.081-40.081-40.081H316.12v128.258 C316.121,240.806,323.299,247.984,332.154,247.984z" fill="#FFD164"></path><rect x="348.19" y="7.5" style="" width="32.06" height="240.48" fill="#6F6571"></rect><path style="" d="M364.218,103.694h-16.032v144.29h32.065V107.077C375.335,104.926,369.926,103.694,364.218,103.694z" fill="#5D5360"></path><path style="" d="M364.218,504.5H203.895c-8.854,0-16.032-7.178-16.032-16.032V143.774 c0-8.854,7.178-16.032,16.032-16.032h160.323c8.854,0,16.032,7.178,16.032,16.032v344.694 C380.25,497.322,373.072,504.5,364.218,504.5z" fill="#DBD9DC"></path><g><path style="fill: rgb(120, 113, 122);" d="M284.056,312.113h-96.194v-96.194h96.194c26.563,0,48.097,21.534,48.097,48.097l0,0 C332.154,290.579,310.62,312.113,284.056,312.113z" fill="#C9C6CA"></path><circle style="fill: rgb(120, 113, 122);" cx="284.06" cy="264.02" r="64.13" fill="#C9C6CA"></circle></g><path style="" d="M284.056,215.919h-42.32c-13.345,11.752-21.81,28.917-21.81,48.097s8.464,36.345,21.81,48.097h42.32 c26.563,0,48.097-21.534,48.097-48.097S310.62,215.919,284.056,215.919z" fill="#B7B2B8"></path><path style="" d="M59.605,288.065h224.452c13.282,0,24.048-10.767,24.048-24.048l0,0 c0-13.282-10.767-24.048-24.048-24.048H59.605c-13.282,0-24.048,10.767-24.048,24.048l0,0 C35.556,277.298,46.323,288.065,59.605,288.065z" fill="#DBD9DC"></path><path d="M364.218,120.242H203.896c-12.976,0-23.533,10.557-23.533,23.533v88.693H59.605c-17.396,0-31.548,14.152-31.548,31.548 s14.152,31.548,31.548,31.548h160.129c11.989,24.508,36.707,40.081,64.323,40.081c39.496,0,71.629-32.133,71.629-71.629 s-32.133-71.629-71.629-71.629c-27.618,0-52.334,15.572-64.323,40.081h-24.371v-88.693c0-4.705,3.828-8.533,8.533-8.533h160.322 c4.705,0,8.532,3.828,8.532,8.533v344.693c0,4.705-3.828,8.532-8.532,8.532H203.896c-4.705,0-8.533-3.827-8.533-8.532V328.145 c0-4.142-3.358-7.5-7.5-7.5s-7.5,3.358-7.5,7.5v160.323c0,12.976,10.557,23.532,23.533,23.532h160.322 c12.976,0,23.532-10.557,23.532-23.532V143.774C387.75,130.798,377.193,120.242,364.218,120.242z M43.057,264.016 c0-9.125,7.423-16.548,16.548-16.548h224.452c9.125,0,16.548,7.423,16.548,16.548s-7.423,16.548-16.548,16.548H59.605 C50.48,280.564,43.057,273.141,43.057,264.016z M284.057,207.387c31.225,0,56.629,25.404,56.629,56.629 s-25.404,56.629-56.629,56.629c-19.235,0-36.687-9.559-47.052-25.081h47.052c17.396,0,31.548-14.152,31.548-31.548 s-14.152-31.548-31.548-31.548h-47.052C247.37,216.946,264.822,207.387,284.057,207.387z" fill="#000000"></path><path d="M460.411,0H332.154c-12.976,0-23.532,10.557-23.532,23.532v72.142c0,4.142,3.358,7.5,7.5,7.5s7.5-3.358,7.5-7.5V23.532 c0-4.705,3.828-8.532,8.532-8.532h8.532v80.677c0,4.142,3.358,7.5,7.5,7.5s7.5-3.358,7.5-7.5V15h17.064v80.677 c0,4.142,3.358,7.5,7.5,7.5s7.5-3.358,7.5-7.5V15h72.661c4.705,0,8.532,3.828,8.532,8.532v208.419c0,4.705-3.828,8.532-8.532,8.532 H412.31c-4.142,0-7.5,3.358-7.5,7.5s3.358,7.5,7.5,7.5h48.101c12.976,0,23.532-10.557,23.532-23.532V23.532 C483.943,10.557,473.387,0,460.411,0z" fill="#000000"></path></svg>